<?xml version="1.0" encoding="UTF-8" standalone="no"?>
<svg
   xmlns:osb="http://www.openswatchbook.org/uri/2009/osb"
   xmlns:dc="http://purl.org/dc/elements/1.1/"
   xmlns:cc="http://creativecommons.org/ns#"
   xmlns:rdf="http://www.w3.org/1999/02/22-rdf-syntax-ns#"
   xmlns:svg="http://www.w3.org/2000/svg"
   xmlns="http://www.w3.org/2000/svg"
   xmlns:sodipodi="http://sodipodi.sourceforge.net/DTD/sodipodi-0.dtd"
   xmlns:inkscape="http://www.inkscape.org/namespaces/inkscape"
   version="1.1"
   viewBox="0 0 48 47.998581"
   enable-background="new 0 0 512 512"
   id="svg845"
   sodipodi:docname="music-off.svg"
   width="48"
   height="47.998581"
   inkscape:version="1.0.1 (c497b03c, 2020-09-10)">
  <metadata
     id="metadata851">
    <rdf:RDF>
      <cc:Work
         rdf:about="">
        <dc:format>image/svg+xml</dc:format>
        <dc:type
           rdf:resource="http://purl.org/dc/dcmitype/StillImage" />
        <dc:title></dc:title>
      </cc:Work>
    </rdf:RDF>
  </metadata>
  <defs
     id="defs849">
    <linearGradient
       id="linearGradient3999"
       osb:paint="solid">
      <stop
         style="stop-color:#011400;stop-opacity:1;"
         offset="0"
         id="stop3997" />
    </linearGradient>
    <inkscape:path-effect
       effect="bspline"
       id="path-effect3969"
       is_visible="true"
       lpeversion="1"
       weight="33.333333"
       steps="2"
       helper_size="0"
       apply_no_weight="true"
       apply_with_weight="true"
       only_selected="false" />
    <inkscape:path-effect
       effect="bspline"
       id="path-effect3965"
       is_visible="true"
       lpeversion="1"
       weight="33.333333"
       steps="2"
       helper_size="0"
       apply_no_weight="true"
       apply_with_weight="true"
       only_selected="false" />
    <clipPath
       clipPathUnits="userSpaceOnUse"
       id="clipPath3647">
      <path
         id="path3649"
         style="fill:#0000ff;fill-opacity:1;fill-rule:evenodd;stroke:#011400;stroke-width:5.28555;stroke-linecap:round;stroke-opacity:1;paint-order:markers fill stroke"
         d="M 11,10.997795 V 500.95287 h 489.97501 v -34.51118 c -2.1031,1.79727 -4.4141,2.90467 -6.79857,3.28962 -0.0388,0.0429 -0.0796,0.0858 -0.11963,0.11964 1.71632,4.87438 3.18715,9.60271 -0.51836,11.46385 -2.6267,1.31913 -4.88314,-0.27295 -7.0378,-2.77127 -2.75742,3.18539 -5.65339,5.51085 -9.09134,4.20675 -4.681,-1.77567 -3.29386,-8.23279 -2.35257,-14.25506 -7.73998,10.23929 -15.71784,12.30584 -27.1145,9.39039 -3.29175,-0.84205 -6.41793,-2.21998 -9.49008,-3.70831 -0.051,0.75701 -0.0408,1.51631 -0.10004,2.27283 -0.17557,2.26611 0.71006,7.12182 -1.51522,6.659 -4.16514,-0.86623 -8.76401,-2.5695 -12.2414,-5.24347 -1.20386,0.41924 -2.06518,0.83204 -3.46906,1.25605 -1.11814,0.33767 0.95504,-2.18431 1.03673,-3.34944 9.3e-4,-0.0133 -9.3e-4,-0.0265 0,-0.0398 -0.78222,-0.92514 -1.47286,-1.92549 -1.9339,-3.05038 -1.27087,-3.10091 -2.11221,-6.31071 -2.69151,-9.58977 -3.80173,3.42383 -10.03649,4.77286 -14.4943,7.63592 -1.53843,-2.99081 -2.25029,-4.37582 -3.1102,-6.04095 -0.7371,2.65744 -1.50019,5.10433 -2.33264,6.93812 -1.12735,2.48341 -3.98342,8.15633 -5.60233,5.9612 -3.27284,-4.43709 -5.73577,-9.45639 -7.63592,-14.7136 -0.20232,0.22192 -0.42444,0.42995 -0.61809,0.65789 -3.86985,16.36577 -2.61758,3.13471 -0.31899,0.319 0.0939,-0.11555 0.22222,-0.20508 0.31899,-0.319 0.10229,-0.4323 0.22896,-1.05791 0.3389,-1.53515 -1.53322,-4.41299 -2.72382,-8.96619 -3.54881,-13.49744 -0.89838,-4.93374 1.48187,-20.19648 3.70831,-33.19533 -0.15322,-0.0153 -0.34329,-0.0633 -0.49845,-0.0796 -9.12718,4.20265 -20.55579,-2.73846 -21.1533,-20.85423 -3.4812,-0.84327 -6.59856,-4.59998 -6.57925,-11.64329 0.0163,-5.90232 0.0919,-11.79237 0.15955,-17.68424 -1.27832,-3.10478 -2.6055,-6.18729 -3.78806,-9.33058 -1.33494,-3.54832 -2.30144,-7.2263 -3.42918,-10.84581 -0.60625,-1.94562 -1.3759,-3.86294 -1.77441,-5.86152 -1.57649,-7.90717 -1.26433,-10.54761 -1.3956,-18.56146 0.46037,-30.86916 2.95051,-61.68271 3.78806,-92.54818 0.28367,-4.25122 0.55367,-8.50854 0.83734,-12.75976 0.25479,-2.57704 0.59522,-5.15245 0.77753,-7.73562 0.18762,-2.65823 0.30787,-5.17761 0.47844,-7.79542 -0.45169,-1.7649 -0.68657,-3.60339 -0.71771,-5.50264 -0.90114,-3.02496 -1.4155,-6.56097 -1.41554,-10.60655 v -5.94128 c -0.85817,-1.14457 -1.85192,-2.23602 -2.57188,-3.42918 -2.81846,-4.67134 -3.99219,-10.17158 -5.98114,-15.25191 1.79638,-12.18917 -0.75793,-11.15597 -2.77126,-20.01688 -0.22283,-0.98076 -1.24306,-2.27295 -0.51835,-2.97063 2.75455,-2.65218 5.75998,-5.01887 8.77234,-7.37674 0.37667,-3.31974 1.60834,-5.59558 3.13013,-7.17737 0.13505,-4.12461 0.54898,-8.22294 1.29592,-12.26134 -1.50209,-13.211455 -3.18695,-26.416639 -2.97064,-39.754644 -0.25938,-5.392985 0,-10.809668 0,-16.20889 0,-31.765069 31.73411,-32.018818 32.33803,-0.857293 1.43004,1.113251 2.7281,2.568741 3.8678,4.326359 1.34223,-8.878346 2.85139,-17.716832 5.32323,-26.336955 1.72858,-6.028177 4.25789,-14.544749 10.42711,-15.670587 1.28478,-0.234467 2.57986,-0.36992 3.88774,-0.41868 9.15541,-0.34132 18.71894,3.629029 26.3569,8.652716 11.26803,7.411286 -17.7052,39.81527 3.03044,40.452445 1.08735,-0.895729 2.20939,-1.758722 3.40966,-2.492309 0.85725,-0.523926 1.87944,-1.578346 2.7912,-1.156353 2.45312,1.135414 8.06924,3.386504 10.68631,6.838436 2.57585,-2.442407 5.09843,-4.937326 7.69573,-7.356802 1.33232,-1.24118 2.6155,-3.922149 4.06717,-4.685227 0.48395,-0.254358 0.98434,-0.294332 1.51522,0 1.86463,1.033896 3.2986,2.573188 4.60548,4.266547 -0.0235,-1.527513 -0.0337,-3.056616 -0.0602,-4.585541 -5.18831,-7.84559 -8.54522,-14.829737 -1.11648,-14.534171 0.62615,0.02491 1.58464,0.26719 2.37252,0.398748 1.99554,-5.654274 5.96647,-8.533098 9.98891,-8.533098 5.66919,0 11.34423,5.62247 11.34423,16.846878 0,0.219151 -6.5e-4,0.438772 0,0.657924 3.12982,3.808307 4.31796,7.954384 5.54253,13.318005 2.6697,11.693338 2.30122,10.700769 3.6485,21.332734 0.44283,2.510491 0.91224,5.018852 1.33578,7.536238 V 10.997795 Z m 439.03564,55.44517 c -1.36495,1.294066 -2.7287,2.587772 -4.08712,3.887742 1.5573,-1.05436 3.19906,-1.76291 4.90454,-2.093399 -0.24438,-0.608488 -0.40076,-1.244729 -0.81744,-1.794343 z M 384.08359,461.99571 c 0.10106,0.2899 0.17486,0.58869 0.27908,0.87726 4.17125,-4.57622 10.00712,-8.01049 12.36102,-13.69681 0.0398,-0.097 0.0419,-0.20171 0.0796,-0.29909 -0.0745,-3.61077 -0.23345,-8.37612 -0.79754,-15.85002 -0.42556,-5.63974 -0.75935,-11.2863 -1.19623,-16.92662 -0.0786,-0.0602 -0.14117,-0.15741 -0.21926,-0.21927 -0.87083,0.0153 -1.99967,-0.0704 -2.99057,-0.10003 -0.16068,2.72406 -0.28266,5.46397 -0.73772,8.07453 -1.54979,9.55389 -2.70794,19.1869 -4.64536,28.6696 -0.99721,4.88096 -1.45437,6.52332 -2.13327,9.47014 z m 12.71989,-13.11864 c 0.18671,9.03218 0.14302,10.02477 3.13013,15.81015 1.12353,-4.05051 2.10236,-8.80086 2.99057,-13.637 -0.0919,0.0337 -0.20865,0.0449 -0.29909,0.0796 0.13709,-1.17742 0.0163,-0.42097 0.11964,-1.29592 -0.37289,-0.35697 -0.75456,-0.6975 -1.03673,-1.17629 -4.63788,-7.86919 -1.15234,-18.25015 -1.59497,-27.37369 -0.0367,-0.75691 -0.0316,-1.51546 -0.0602,-2.27283 -0.45017,2.66824 -1.01619,5.31271 -1.37566,7.99479 -0.97138,7.2487 0.79345,15.08331 -1.87409,21.87104 z m 3.24975,-29.86583 c 0.0225,-0.13259 0.0368,-0.26642 0.0602,-0.39871 -0.0265,-0.006 -0.0531,-0.0143 -0.0796,-0.0204 0.006,0.13964 0.0143,0.27898 0.0204,0.41873 z m 2.69152,30.82281 c 0.12433,0.11902 0.20548,0.29184 0.3389,0.39872 0.54642,-3.02519 0.82683,-4.78706 1.27597,-7.65586 -0.36166,2.70047 -0.64135,5.3993 -0.51835,8.07453 0.0663,0.0398 0.13107,0.0817 0.19936,0.11964 2.06932,-0.5746 4.26927,-1.00721 6.41975,-1.49528 -0.27857,-0.67331 -0.60021,-1.25417 -0.85725,-1.97378 -2.14133,-5.99618 -3.20359,-8.75586 -4.16686,-11.66323 v -0.0204 c -0.6287,-1.89817 -1.57088,-5.40948 -2.33265,-8.17423 -2.3e-4,18.74771 0.91707,11.58338 -0.3589,22.3894 z m 1.29591,0.93708 c -0.0663,0.0184 -0.13413,0.0408 -0.19936,0.0602 0.0817,1.58459 0.24438,3.17324 0.57817,4.74504 0.9627,4.53373 8.19887,4.32245 12.30121,6.47957 -0.75527,-0.61023 -2.12793,-0.8741 -2.27283,-1.83422 -0.0388,-0.25418 -0.22365,-2.93736 -0.27908,-3.46906 -0.781,-0.61665 -1.08553,-1.47721 -1.21617,-2.43233 -0.41729,-0.69545 -0.84653,-1.34596 -1.2361,-2.11334 -2.83644,-0.10718 -5.60936,-0.29654 -7.6758,-1.43547 z m 10.12807,5.98114 c 0.0858,0.0674 0.12494,0.15669 0.21926,0.21927 0.11443,0.0755 0.2602,0.0735 0.37882,0.13954 -0.21467,-0.28419 -0.42832,-0.57725 -0.63799,-0.87726 0.0112,0.14005 0.0316,0.43894 0.0398,0.51835 z m -10.32744,-5.92132 c -0.003,-0.0592 0.003,-0.11974 0,-0.17946 -0.24846,-0.14821 -0.53295,-0.23866 -0.75762,-0.41872 -0.05,0.27949 -0.108,0.53815 -0.15955,0.81744 0.28102,-0.10208 0.62125,-0.13331 0.91707,-0.21926 z m 13.69681,12.26133 c 0.55031,-0.49559 0.88941,-1.17088 1.33579,-1.75446 -0.56102,-0.4519 -1.13083,-0.85868 -1.67472,-1.3956 0.0919,1.05483 0.15639,2.1166 0.3389,3.15006 z m 4.62542,12.64015 c 0.68433,0.80937 1.56302,1.4648 2.43233,2.13327 4.85083,-1.68906 8.53149,-3.36975 10.64643,-5.26341 -0.7368,-0.36932 -1.47647,-0.73435 -2.21302,-1.09654 -3.25279,-1.59924 -7.61953,-2.35762 -9.35052,-5.54253 -0.37841,-0.69617 -0.62513,-1.44913 -0.93708,-2.17314 -0.0214,-0.01 -0.0388,-0.0296 -0.0602,-0.0398 -0.15158,3.99599 -0.23835,7.99328 -0.51835,11.98222 z m 13.07876,-3.13014 c 1.06658,0.53459 2.13488,1.05416 3.20988,1.57504 0.32195,-4.7939 0.44792,-9.59066 0.59807,-14.39461 -0.0122,-0.007 -0.0276,-0.0122 -0.0398,-0.0204 -0.30929,0.42659 -0.59338,0.89737 -0.93708,1.27598 0.82133,4.91552 0.47487,8.60336 -2.83107,11.56353 z m 39.81446,-4.10705 c 0.0184,-0.0235 0.0419,-0.0357 0.0602,-0.0602 -0.0122,-0.002 -0.0276,0.002 -0.0398,0 -0.003,0.0204 -0.0163,0.0388 -0.0204,0.0602 z m 0.0204,-0.0602 c 0.0939,-0.60287 0.0817,-1.12565 0.15954,-1.71459 -0.0276,-0.73793 -0.0714,-1.47492 -0.10003,-2.21303 -0.18191,0.0296 -0.37208,0.0265 -0.55827,0.0398 -2.34893,3.00475 -6.85938,3.18073 -11.12491,3.66844 3.55348,0.48916 8.11414,-0.32706 11.62335,0.21926 z m -11.62335,-0.21926 c -1.81093,-0.24927 -3.41131,-0.79948 -4.30643,-2.23296 -0.0439,0.0592 -0.11187,0.0163 -0.15954,0.0602 0.0367,0.99046 0.10412,1.9801 0.13954,2.97063 1.33023,-0.41158 2.81424,-0.62461 4.32635,-0.79753 z m -4.46592,-2.17315 c -0.004,-0.10647 -0.0163,-0.21253 -0.0204,-0.319 -0.0449,-0.0837 -0.11872,-0.13045 -0.15955,-0.21926 -0.61757,-1.34688 -0.91972,-2.74582 -1.09654,-4.16686 -1.16944,0.73037 -2.43443,1.14934 -3.72825,1.29591 -0.11198,0.24775 -0.13709,0.50264 -0.25918,0.73772 0.35513,0.16312 0.45895,0.19181 0.85726,0.37881 1.46927,0.68954 3.3606,3.2578 4.40611,2.29277 z m -5.26341,-2.67158 c -0.73435,-0.33727 -1.11066,-0.49151 -1.71459,-0.75762 -1.74329,-0.20375 -3.44803,-0.95505 -5.00422,-2.23296 -2.5245,1.04787 -5.28423,0.92881 -7.75555,-0.45854 2.42162,2.85667 5.72835,5.11708 10.54674,6.2802 1.68808,0.40749 2.96499,-0.9771 3.92762,-2.83108 z m 5.24347,2.35258 c 0.049,0.0929 0.12576,0.15261 0.17945,0.23928 0.44568,-0.60931 0.71118,-1.28565 0.91707,-1.99371 -0.61573,-0.68413 -1.05136,-1.50641 -1.29592,-2.45227 0.0551,1.40253 0.14689,2.80411 0.19936,4.20673 z m 1.09607,-1.75412 c 0.42495,0.47211 0.90543,0.90248 1.55508,1.21617 2.4893,1.20192 5.14285,0.10371 7.55618,-1.9339 -2.91729,-1.47289 -5.56302,-3.90315 -7.57611,-6.2802 -0.30797,0.56623 -0.63809,1.09243 -0.9969,1.57503 -0.0347,1.86653 -0.05,3.74485 -0.53825,5.4229 z m 9.11126,-0.71771 c 1.84898,0.93351 3.69505,1.42061 5.40296,1.29591 0.12004,-0.15362 0.27061,-0.26948 0.37881,-0.43863 0.0572,-0.0898 0.0847,-0.18884 0.13954,-0.27908 -0.10004,-2.61239 -0.2505,-5.22294 -0.35891,-7.83529 -1.41587,2.6633 -3.29849,5.34562 -5.56246,7.25712 z m 5.56247,-7.25712 c 0.18986,-0.35727 0.35145,-0.70669 0.51835,-1.05667 -0.39709,-7.03792 -0.60859,-12.67327 -0.79754,-17.78392 -0.33441,-1.35238 -0.67157,-2.69265 -0.79753,-4.0273 0.36901,7.62347 0.76017,15.24309 1.0766,22.86789 z m -0.27909,-18.84059 c 0.23734,0.95984 0.44578,1.90935 0.71772,2.87095 -0.29123,-2.60074 -0.67096,-5.61435 -0.97689,-8.35366 0.0418,1.4931 0.20099,3.90692 0.25917,5.48271 z m -0.25917,-5.48271 c -0.17517,-6.26201 -0.0868,-14.58917 -0.0398,-22.68846 -0.52867,0.21793 -1.05398,0.47435 -1.59497,0.61808 0.19568,4.31297 0.38208,8.62611 0.59807,12.9392 0.34778,3.10575 0.7025,6.13808 1.03673,9.13121 z m -1.03673,-9.13121 c -0.37289,-3.33051 -0.75313,-6.3948 -1.13642,-9.78913 0.57949,7.31097 1.26736,16.49903 1.61491,20.19632 -0.16802,-3.46937 -0.30511,-6.93818 -0.47844,-10.40719 z m -1.13642,-9.78913 c -0.0868,-1.0898 -0.16098,-2.05671 -0.23927,-3.01051 -0.0327,0.007 -0.0674,-0.006 -0.10004,0 0.11188,0.98883 0.2211,1.96692 0.3389,3.01051 z m 3.15007,27.274 c 0.11116,0.9926 0.25019,2.22176 0.3589,3.18994 0.15486,1.43873 0.66351,3.01222 1.19624,4.60548 -0.001,-0.17282 -8.3e-4,-0.3436 0,-0.51835 -0.24397,-2.39 -0.86379,-4.83338 -1.5551,-7.27706 z m 0.0796,14.91297 c 0.1621,2.87222 0.13597,3.87435 0.3389,7.25712 0.0133,0.22559 -0.0623,0.52305 -0.0602,0.75762 0.50039,-0.97413 0.89155,-1.98019 1.1763,-3.03044 0.0122,-0.79733 -0.0327,-1.61666 0.0796,-2.37252 0.15689,-1.1881 0.3044,-2.37893 0.45853,-3.56875 -0.25642,-1.42606 -0.42291,-2.93139 -0.49844,-4.54567 -0.0408,1.23908 -0.10902,2.47254 -0.55827,3.66844 -0.21406,0.5699 -0.64493,1.22162 -0.93708,1.83421 z m 1.45541,4.98429 c -0.0214,1.39749 -0.1176,2.76292 -0.21927,4.12698 0.4124,-0.18405 0.84194,-0.2995 1.21617,-0.59808 0.29521,-0.23549 0.43434,-0.53203 0.6579,-0.79753 0.0174,-1.46904 0.005,-2.93735 0,-4.40612 -0.34197,-0.98148 -0.69475,-1.96651 -0.93708,-3.07031 -0.11065,1.62695 -0.3047,3.22178 -0.71771,4.74504 z m 1.65478,2.73139 c -0.0225,1.85439 0.0439,3.70771 0,5.56246 2.83675,2.44564 5.38888,7.144 8.13435,10.32743 2.51771,-2.90819 4.93714,-6.45204 7.55618,-8.69259 -0.0122,-0.0337 -0.0276,-0.0653 -0.0398,-0.10004 -5.62674,0.83439 -11.38057,-2.24365 -14.6538,-9.03151 -0.2014,0.69617 -0.51304,1.35664 -0.99689,1.9339 z m -1.8741,1.39559 c -0.35778,0.15965 -0.69525,0.35799 -1.0766,0.43863 -0.049,0.73669 -0.0755,1.45059 -0.17945,2.23296 0.0163,0.452 0.0439,0.90369 0.0602,1.35573 0.79029,-1.1827 1.08716,-2.56086 1.19622,-4.02731 z m -1.19622,4.02731 c -0.0572,0.0857 -0.0572,0.19548 -0.11964,0.27908 -0.0214,0.0286 -0.0388,0.0521 -0.0602,0.0796 0.0602,0.01 0.13944,-0.0102 0.19936,0 -0.004,-0.11974 -0.0153,-0.23917 -0.0204,-0.35891 z m 0.11963,-3.58869 c 0.0337,-0.50641 0.12454,-1.05993 0.11964,-1.53516 -0.14985,0.29185 -0.26612,0.59338 -0.43863,0.87726 0.009,0.22611 0.0316,0.4517 0.0398,0.6779 0.0908,-0.0153 0.18936,10e-4 0.27908,-0.0204 z M 396.68386,26.648445 c -4.63713,1.735504 13.85082,29.396094 15.94971,39.316029 l 4.30642,-0.378802 c 3.52216,-16.900402 4.06781,-33.324699 -19.00009,-38.917286 -0.52631,-0.127597 -0.94688,-0.135764 -1.25604,-0.01991 z m 62.46304,35.607723 c -1.83936,2.672364 -3.12999,4.386326 -4.18679,5.901391 3.68299,0.530061 7.20648,2.6985 9.86887,6.579254 0.18752,-0.177881 0.37065,-0.360448 0.55827,-0.538299 -0.32043,-1.519151 -0.45088,-2.438901 -1.03674,-4.924471 0.64952,0.289473 -0.95351,-0.489883 -0.0398,-0.219305 -0.0235,-0.100955 -0.0153,-0.09616 -0.0398,-0.199369 -0.40474,-1.710486 -2.7042,-6.279288 -1.41554,-5.083969 6.44928,5.98196 4.11113,6.070031 1.45541,5.28334 0.0265,0.110673 0.0143,0.111214 0.0398,0.219305 -0.8349,-0.372054 3.09152,1.445153 3.42919,1.555096 0.11423,-2.199283 0.0898,-4.397959 0.10004,-6.599191 -2.86849,-0.738086 -5.94491,-1.094708 -8.73246,-1.973776 z m -25.81859,1.395598 c 0.0337,1.811486 0.0868,3.529079 0.11964,5.323215 0.46425,0.209761 0.98822,0.407894 1.45541,0.618053 0.56592,-1.945652 1.13167,-3.908487 2.11333,-5.502649 -1.23392,-0.158783 -2.46284,-0.313768 -3.68837,-0.43862 z m 3.68837,0.43862 c 0.56521,0.07278 1.13322,0.207249 1.69466,0.219305 0.55163,0.01184 -1.31387,-0.881098 -1.6149,-0.418684 -0.0378,0.05747 -0.0439,0.140694 -0.0796,0.199369 z m -36.08621,-0.199369 c 0.05,2.677041 0.13076,5.215782 0.17946,7.855231 2.62754,1.507869 5.09379,3.890138 7.11755,7.296991 0.63339,-0.596259 1.25948,-1.187721 1.87409,-1.794341 -2.98073,-3.63106 -4.83357,-7.14809 -2.93078,-9.290711 -1.67583,-0.912271 -3.6348,-2.13819 -6.24032,-4.06717 z m 43.14396,2.252897 c -0.19957,-0.198021 -0.46334,-0.173043 -0.81745,0.159497 -1.70066,1.597046 -2.34883,3.875175 -2.89088,6.240323 0.62349,0.395277 1.24545,0.807999 1.83422,1.236102 0.811,-1.042902 1.70026,-1.908454 2.63172,-2.671581 -0.13931,-2.019581 -0.18605,-4.397316 -0.75761,-4.964341 z m 33.17539,341.064556 c -0.20202,0.1525 -0.41189,0.27887 -0.61809,0.41872 0.38351,6.72313 0.68719,13.44987 0.9969,20.17638 0.0337,-0.58563 0.12903,-2.31992 0.15955,-2.85102 -0.13995,-1.07233 -0.29286,-2.13462 -0.29909,-3.34943 -0.0245,-4.79944 -0.14005,-9.59673 -0.23927,-14.39461 z m -11.88253,2.05352 c -0.91768,6.433 -1.80038,13.17821 -2.69151,20.49538 0.0419,1.62057 0.31899,5.01684 0.45853,6.99793 1.16132,-10.48927 1.14781,-14.46755 4.1868,-26.97494 -0.66188,-0.11372 -1.30596,-0.29593 -1.95384,-0.51836 z" />
    </clipPath>
  </defs>
  <sodipodi:namedview
     pagecolor="#ffffff"
     bordercolor="#666666"
     borderopacity="1"
     objecttolerance="10"
     gridtolerance="10"
     guidetolerance="10"
     inkscape:pageopacity="0"
     inkscape:pageshadow="2"
     inkscape:window-width="1580"
     inkscape:window-height="997"
     id="namedview847"
     showgrid="false"
     inkscape:zoom="6.302028"
     inkscape:cx="9.9928512"
     inkscape:cy="35.462087"
     inkscape:window-x="0"
     inkscape:window-y="25"
     inkscape:window-maximized="0"
     inkscape:current-layer="svg845" />
  <g
     id="g843"
     transform="matrix(0.09796418,0,0,0.09796418,-1.077606,-1.07739)"
     clip-path="url(#clipPath3647)">
    <g
       id="g841">
      <g
         id="g839">
        <path
           d="m 444.8,76.8 c -6.8,-9 -19.7,-10.9 -28.8,-4.2 -9.1,6.7 -11,19.4 -4.2,28.4 64.8,85.9 64.8,225.6 0,311.5 -6.8,9 -5.1,21.9 4.2,28.4 11.4,7.9 24.8,1.2 28.8,-4.2 74.9,-99.1 74.9,-260.6 0,-359.9 z"
           id="path833" />
        <path
           d="m 394.7,143.2 c -6.8,-9 -19.7,-10.8 -28.8,-4.2 -9.1,6.7 -11,19.4 -4.2,28.4 36.6,48.4 36.6,130.3 0,178.7 -6.8,9 -5,21.8 4.2,28.4 11.7,8.3 24.8,1.2 28.8,-4.2 48.1,-63.6 48.1,-163.4 0,-227.1 z"
           id="path835" />
        <path
           d="M 291.9,438.3 147.7,325.9 V 187.7 L 291.9,75.4 Z M 106.5,315.5 H 52.2 V 197.8 h 54.3 z M 301.2,15.3 121.1,157.2 H 31.6 c -11.4,0 -20.6,9.1 -20.6,20.3 v 158.2 c 0,11.2 9.2,20.3 20.6,20.3 h 91.2 l 178.4,140.7 c 12.8,10.1 31.9,1.1 31.9,-15.1 V 30.4 c 0,-16.2 -19,-25.3 -31.9,-15.1 z"
           id="path837" />
      </g>
    </g>
  </g>
  <path
     style="fill:none;stroke:#000000;stroke-width:3.38944;stroke-linecap:butt;stroke-linejoin:miter;stroke-miterlimit:4;stroke-dasharray:none;stroke-opacity:1"
     d="m 36.289188,13.441039 c 1.705902,3.034466 3.404529,6.055992 4.711966,8.724199 1.307436,2.668208 2.225612,4.982568 3.138442,7.28345"
     id="path3963"
     inkscape:path-effect="#path-effect3965"
     inkscape:original-d="m 36.289188,13.441039 c 1.707306,3.033677 3.405932,6.055203 5.095879,9.064572 0.926856,2.326513 1.845033,4.640872 2.754529,6.943077" />
  <path
     style="fill:none;stroke:#011400;stroke-width:3.05296;stroke-linecap:butt;stroke-linejoin:miter;stroke-miterlimit:4;stroke-dasharray:none;stroke-opacity:1"
     d="M 46.672371,12.275 C 42.636256,18.217684 38.602572,24.156789 34.571319,30.092314"
     id="path3967"
     inkscape:path-effect="#path-effect3969"
     inkscape:original-d="M 46.672371,12.275 C 42.651396,18.227967 38.617712,24.167072 34.571319,30.092314" />
</svg>
