<?xml version="1.0" encoding="UTF-8" standalone="no"?>
<svg
   xmlns:dc="http://purl.org/dc/elements/1.1/"
   xmlns:cc="http://creativecommons.org/ns#"
   xmlns:rdf="http://www.w3.org/1999/02/22-rdf-syntax-ns#"
   xmlns:svg="http://www.w3.org/2000/svg"
   xmlns="http://www.w3.org/2000/svg"
   xmlns:sodipodi="http://sodipodi.sourceforge.net/DTD/sodipodi-0.dtd"
   xmlns:inkscape="http://www.inkscape.org/namespaces/inkscape"
   version="1.1"
   viewBox="0 0 48 47.998581"
   enable-background="new 0 0 512 512"
   id="svg845"
   sodipodi:docname="music-on.svg"
   width="48"
   height="47.998581"
   inkscape:version="1.0.1 (c497b03c, 2020-09-10)">
  <metadata
     id="metadata851">
    <rdf:RDF>
      <cc:Work
         rdf:about="">
        <dc:format>image/svg+xml</dc:format>
        <dc:type
           rdf:resource="http://purl.org/dc/dcmitype/StillImage" />
        <dc:title></dc:title>
      </cc:Work>
    </rdf:RDF>
  </metadata>
  <defs
     id="defs849" />
  <sodipodi:namedview
     pagecolor="#ffffff"
     bordercolor="#666666"
     borderopacity="1"
     objecttolerance="10"
     gridtolerance="10"
     guidetolerance="10"
     inkscape:pageopacity="0"
     inkscape:pageshadow="2"
     inkscape:window-width="1580"
     inkscape:window-height="997"
     id="namedview847"
     showgrid="false"
     inkscape:zoom="0.97968464"
     inkscape:cx="23.569622"
     inkscape:cy="24.02123"
     inkscape:window-x="0"
     inkscape:window-y="25"
     inkscape:window-maximized="0"
     inkscape:current-layer="svg845" />
  <g
     id="g843"
     transform="matrix(0.09796418,0,0,0.09796418,-1.077606,-1.07739)">
    <g
       id="g841">
      <g
         id="g839">
        <path
           d="m 444.8,76.8 c -6.8,-9 -19.7,-10.9 -28.8,-4.2 -9.1,6.7 -11,19.4 -4.2,28.4 64.8,85.9 64.8,225.6 0,311.5 -6.8,9 -5.1,21.9 4.2,28.4 11.4,7.9 24.8,1.2 28.8,-4.2 74.9,-99.1 74.9,-260.6 0,-359.9 z"
           id="path833" />
        <path
           d="m 394.7,143.2 c -6.8,-9 -19.7,-10.8 -28.8,-4.2 -9.1,6.7 -11,19.4 -4.2,28.4 36.6,48.4 36.6,130.3 0,178.7 -6.8,9 -5,21.8 4.2,28.4 11.7,8.3 24.8,1.2 28.8,-4.2 48.1,-63.6 48.1,-163.4 0,-227.1 z"
           id="path835" />
        <path
           d="M 291.9,438.3 147.7,325.9 V 187.7 L 291.9,75.4 Z M 106.5,315.5 H 52.2 V 197.8 h 54.3 z M 301.2,15.3 121.1,157.2 H 31.6 c -11.4,0 -20.6,9.1 -20.6,20.3 v 158.2 c 0,11.2 9.2,20.3 20.6,20.3 h 91.2 l 178.4,140.7 c 12.8,10.1 31.9,1.1 31.9,-15.1 V 30.4 c 0,-16.2 -19,-25.3 -31.9,-15.1 z"
           id="path837" />
      </g>
    </g>
  </g>
</svg>
