<?xml version="1.0" encoding="UTF-8" standalone="no"?>
<svg
   xmlns:dc="http://purl.org/dc/elements/1.1/"
   xmlns:cc="http://creativecommons.org/ns#"
   xmlns:rdf="http://www.w3.org/1999/02/22-rdf-syntax-ns#"
   xmlns:svg="http://www.w3.org/2000/svg"
   xmlns="http://www.w3.org/2000/svg"
   xmlns:sodipodi="http://sodipodi.sourceforge.net/DTD/sodipodi-0.dtd"
   xmlns:inkscape="http://www.inkscape.org/namespaces/inkscape"
   id="icons"
   viewBox="0 0 48 48"
   version="1.1"
   sodipodi:docname="pencil.svg"
   inkscape:version="1.0.1 (c497b03c, 2020-09-10)">
  <metadata
     id="metadata40">
    <rdf:RDF>
      <cc:Work
         rdf:about="">
        <dc:format>image/svg+xml</dc:format>
        <dc:type
           rdf:resource="http://purl.org/dc/dcmitype/StillImage" />
      </cc:Work>
    </rdf:RDF>
  </metadata>
  <defs
     id="defs38" />
  <sodipodi:namedview
     pagecolor="#ffffff"
     bordercolor="#666666"
     borderopacity="1"
     objecttolerance="10"
     gridtolerance="10"
     guidetolerance="10"
     inkscape:pageopacity="0"
     inkscape:pageshadow="2"
     inkscape:window-width="1792"
     inkscape:window-height="1067"
     id="namedview36"
     showgrid="false"
     inkscape:zoom="12.875"
     inkscape:cx="24"
     inkscape:cy="24"
     inkscape:window-x="0"
     inkscape:window-y="25"
     inkscape:window-maximized="1"
     inkscape:current-layer="icons" />
  <title
     id="title10">pencil</title>
  <g
     id="pencil">
    <polygon
       points="10.01 43.01 2 46 4.98 37.99 5 38 10 43 10.01 43.01"
       fill="#2d346a"
       id="polygon12" />
    <polygon
       points="14.37 33.63 20.02 39.28 10.01 43.01 10 43 5 38 4.98 37.99 8.72 27.97 14.37 33.63"
       fill="#fff"
       id="polygon14" />
    <path
       d="M41.11,18.19,20,39.28l-5.65-5.65L39,9l5.6,5.6a5.32,5.32,0,0,1-.59.68L41.12,18.2Z"
       fill="#ffc12e"
       id="path16" />
    <path
       d="M29.81,6.89,32.74,4a5.4,5.4,0,0,1,.69-.59L39,9,14.37,33.63,8.72,28Z"
       fill="#ffc12e"
       id="path18" />
    <path
       d="M46,10.41a6.84,6.84,0,0,1-1.36,4.16L39,9,33.43,3.36c2.85-2.16,7.17-1.72,10,1.16A8.39,8.39,0,0,1,46,10.41Z"
       fill="#c3cce9"
       id="path20"
       style="fill:#ff8080" />
    <polyline
       points="41.43 17.86 20.02 39.28 8.72 27.97 30.14 6.57"
       fill="none"
       stroke="#2d346a"
       stroke-linecap="round"
       stroke-linejoin="round"
       stroke-width="2"
       id="polyline22" />
    <path
       d="M29.81,6.89,32.74,4c2.81-2.81,7.62-2.55,10.74.57h0c3.12,3.12,3.38,7.93.57,10.73L41.12,18.2"
       fill="none"
       stroke="#2d346a"
       stroke-linecap="round"
       stroke-linejoin="round"
       stroke-width="2"
       id="path24" />
    <polyline
       points="20.02 39.28 2 46 8.72 27.97"
       fill="none"
       stroke="#2d346a"
       stroke-linecap="round"
       stroke-linejoin="round"
       stroke-width="2"
       id="polyline26" />
    <line
       x1="5"
       y1="38"
       x2="10"
       y2="43"
       fill="none"
       stroke="#2d346a"
       stroke-linecap="round"
       stroke-linejoin="round"
       stroke-width="2"
       id="line28" />
    <line
       x1="33.43"
       y1="3.36"
       x2="44.68"
       y2="14.61"
       fill="none"
       stroke="#2d346a"
       stroke-linejoin="round"
       stroke-width="2"
       id="line30" />
    <line
       x1="14.37"
       y1="33.63"
       x2="39.04"
       y2="8.97"
       fill="none"
       stroke="#2d346a"
       stroke-linecap="round"
       stroke-linejoin="round"
       stroke-width="2"
       id="line32" />
  </g>
</svg>
